<?xml version="1.0" encoding="iso-8859-1"?>
<!-- Uploaded to: SVG Repo, www.svgrepo.com, Generator: SVG Repo Mixer Tools -->
<svg fill="#000000" height="800px" width="800px" version="1.1" id="Layer_1" xmlns="http://www.w3.org/2000/svg" xmlns:xlink="http://www.w3.org/1999/xlink" 
	 viewBox="0 0 512.001 512.001" xml:space="preserve">
<g>
	<g>
		<path d="M473.231,227.529c-6.854,17.132-16.475,27.969-28.598,32.21c-0.441,0.154-0.877,0.288-1.31,0.422
			c0.377-3.602,0.578-7.257,0.578-10.958v-41.756h-41.756v41.756c0,27.218-17.455,50.423-41.756,59.043v-45.124h-41.756v48.715
			h-41.756v-53.355c0-19.187,15.61-34.796,34.796-34.796c57.562,0,104.389-46.829,104.389-104.389h-41.756
			c0,21.909-11.316,41.214-28.399,52.41C272.745,144.314,270.592,71.12,270.537,67.94l-20.876,0.262l-20.878,0.161
			c0.008,1.14,0.372,28.289,13.971,59.356c7.949,18.155,21.487,39.998,44.324,58.288c-30.177,10.271-51.955,38.868-51.955,72.474
			v18.616c-17.459-13.136-39.151-20.935-62.634-20.935c-6.467,0-12.706-0.985-18.58-2.813c4.437-3.059,9.008-6.649,13.534-10.873
			c37.356-34.848,41.913-83.794,39.159-118.717l-41.626,3.283c2.889,36.617-5.419,64.755-24.689,83.634
			c-7.65,7.494-15.699,12.124-21.621,14.834c-5.588-9.367-8.81-20.304-8.81-31.984v-83.511H68.099v61.997
			c-0.245-0.081-0.487-0.149-0.734-0.237c-12.122-4.241-21.744-15.078-28.597-32.21L0,155.076
			c17.056,42.638,46.773,57.267,70.363,60.059c9.981,47.226,51.973,82.782,102.126,82.782c34.536,0,62.634,28.096,62.634,62.634
			v6.035c-34.955-2.999-68.957-13.47-99.38-30.78c-35.381-20.13-65.431-49.068-86.902-83.687l-35.485,22.008
			c17.567,28.324,40.055,53.385,66.138,73.965c-10.497,18.285-30.053,19.359-32.512,19.419l0.241-0.001v41.756
			c2.029,0,44.127-0.489,67.005-37.678c0.291,0.167,0.575,0.345,0.867,0.511c36.706,20.883,77.828,33.282,120.03,36.375v35.588
			h41.756v-90.471h48.67c11.115,22.818,29.042,39.988,52.569,50.072c20.598,8.829,38.314,9.082,40.266,9.082v-41.756l0.164,0.001
			c-1.432-0.024-28.374-0.792-46.843-22.502c23.894-7.767,44.04-23.918,56.923-44.982c1.36,0.082,2.76,0.125,4.201,0.125
			c24.491,0,59.911-12.445,79.172-60.593L473.231,227.529z"/>
	</g>
</g>
</svg>