<?xml version="1.0" encoding="utf-8"?><!-- Uploaded to: SVG Repo, www.svgrepo.com, Generator: SVG Repo Mixer Tools -->
<svg width="800px" height="800px" viewBox="0 -0.5 25 25" fill="none" xmlns="http://www.w3.org/2000/svg">
<path fill-rule="evenodd" clip-rule="evenodd" d="M8.0553 15.7213C7.1797 15.7044 6.48357 14.9809 6.5003 14.1053V10.8733C6.48357 9.99772 7.1797 9.27428 8.0553 9.25732H13.7153C14.074 9.25645 14.4209 9.12855 14.6943 8.89632L16.5253 7.35332C16.9965 6.96545 17.6514 6.89018 18.1983 7.16103C18.7452 7.43189 19.0823 7.99846 19.0593 8.60832V16.3703C19.0823 16.9802 18.7452 17.5467 18.1983 17.8176C17.6514 18.0885 16.9965 18.0132 16.5253 17.6253L14.6943 16.0823C14.4209 15.8501 14.074 15.7222 13.7153 15.7213H8.0553Z" stroke="#000000" stroke-width="1.5" stroke-linecap="round" stroke-linejoin="round"/>
<path d="M13.6183 12.4894V15.7214" stroke="#000000" stroke-width="1.5" stroke-linecap="round"/>
</svg>