<?xml version="1.0" encoding="iso-8859-1"?>
<!-- Uploaded to: SVG Repo, www.svgrepo.com, Generator: SVG Repo Mixer Tools -->
<svg fill="#000000" height="800px" width="800px" version="1.1" id="Layer_1" xmlns="http://www.w3.org/2000/svg" xmlns:xlink="http://www.w3.org/1999/xlink" 
	 viewBox="0 0 512 512" xml:space="preserve">
<g>
	<g>
		<path d="M509.768,304.869c-4.9-24.197-17.365-40.379-35.096-45.566c-13.175-3.853-27.166-1.018-40.528,7.968
			c-38.175,14.887-89.572,20.429-134.702,14.445c-51.261-6.795-89.999-27.117-109.081-57.224
			c-43.525-68.643,38.174-163.818,64.251-191.352l24.169-25.52l-35.052-2.61c-1.119-0.083-27.801-1.937-62.004,7.092
			c-41.086,10.845-75.911,32.891-101.481,64.082c-7.829-0.984-15.998,0.139-23.652,3.388c-11.548,4.904-21.077,14.096-26.833,25.894
			c-9.929,20.385-6.112,43.672,7.895,57.726c-3.029,11.679-5.21,23.49-6.52,35.319c-8.257,3.651-15.469,9.658-20.983,17.659
			C2.22,227.678-1.242,242.028,0.398,256.57c1.632,14.552,8.195,27.774,18.482,37.23c7.574,6.962,16.504,11.33,25.947,12.839
			c3.002,7.623,6.433,15.088,10.277,22.297c2.493,4.675,5.131,9.284,7.885,13.806c-6.232,9.821-9.052,21.585-8.007,34.057
			c1.292,15.412,8.415,30.134,20.047,41.447c12.926,12.586,29.441,18.957,45.359,18.957c10.264,0,20.273-2.665,28.917-8.005
			c15.58,9.414,32.444,17.392,50.368,23.816c1.114,10.294,5.239,20.253,12.182,29.001c9.846,12.407,24.276,20.916,40.614,23.958
			c4.378,0.82,8.765,1.227,13.111,1.227c11.874,0,23.409-3.03,33.41-8.892c10.555-6.187,18.483-14.946,23.129-25.309
			c0.151,0,0.305,0.003,0.455,0.003c54.428,0,101.212-10.357,116.408-17.486c11.097-2.533,22.226-9.289,32.602-20.024
			c14.493-14.992,26.4-36.688,33.525-61.085C512.252,350.004,513.908,325.308,509.768,304.869z M59.772,120.099
			c2.19-4.49,5.788-8.058,9.869-9.791c1.17-0.496,3.02-1.1,5.107-1.1c1.35,0,2.8,0.253,4.228,0.951
			c3.632,1.773,5.082,5.433,5.624,7.457c1.146,4.283,0.547,9.311-1.645,13.796v0.001c-4.134,8.462-12.939,13.018-19.219,9.956
			C57.466,138.304,55.653,128.558,59.772,120.099z M64.979,266.572c-1.655,2.403-5.297,6.534-11.078,7.185
			c-5.805,0.651-10.273-2.564-12.423-4.54c-4.359-4.007-7.162-9.819-7.898-16.379c-0.739-6.55,0.705-12.843,4.065-17.72
			c1.656-2.403,5.299-6.532,11.096-7.185c0.496-0.056,0.993-0.083,1.486-0.083c9.057,0,17.487,9.225,18.817,21.004
			C69.772,255.307,68.29,261.764,64.979,266.572z M135.179,398.065c-8.859,9.097-25.392,7.419-36.863-3.75
			c-5.868-5.707-9.44-12.918-10.06-20.305c-0.545-6.506,1.343-12.337,5.318-16.42c3.675-3.774,8.883-5.809,14.789-5.809
			c0.492,0,0.991,0.014,1.493,0.042c7.396,0.42,14.694,3.795,20.552,9.505l0.013,0.013
			C141.89,372.495,144.02,388.972,135.179,398.065z M293.055,454.873c-1.11,5.944-5,11.138-10.953,14.629
			c-6.714,3.935-15.049,5.232-23.501,3.649c-8.439-1.572-15.752-5.794-20.59-11.892c-4.287-5.403-6.036-11.648-4.927-17.577
			c2.12-11.308,13.782-18.956,27.479-18.956c2.278,0,4.615,0.211,6.972,0.653l0.011,0.002
			C284.065,428.468,295.507,441.702,293.055,454.873z M391.382,433.768c-17.249,3.03-40.04,5.668-65.966,5.832
			c-5.211-22.826-25.169-42.079-51.74-47.041c-27.639-5.174-54.183,6.649-66.754,27.545c-12.813-4.828-24.961-10.55-36.335-17.113
			c7.742-21.272,1.851-47.372-16.884-65.589c-11.622-11.322-26.52-18.04-41.95-18.916c-7.914-0.446-15.496,0.654-22.449,3.16
			c-1.626-2.779-3.219-5.581-4.734-8.421c-2.359-4.423-4.533-8.962-6.521-13.582c5.533-3.573,10.43-8.322,14.429-14.128
			c7.928-11.508,11.389-25.858,9.747-40.406c-2.632-23.319-17.879-41.89-37.243-48.267c0.966-7.081,2.282-14.151,3.962-21.178
			c17.664-0.433,35.129-11.4,44.016-29.592c5.76-11.788,7.145-24.96,3.9-37.088c-1.534-5.73-4.087-10.996-7.451-15.568
			c20.567-23.576,47.303-39.956,79.728-48.731c4.935-1.336,9.695-2.402,14.195-3.251c-16.856,21.433-33.896,47.395-45.392,75.708
			c-19.201,47.291-17.741,90.596,4.221,125.23c24.465,38.601,71.662,64.33,132.895,72.447c13.705,1.816,27.781,2.706,41.888,2.706
			c20.6,0,41.253-1.913,60.917-5.586c-4.287,8.702-7.954,18.095-10.83,27.941C376.054,377.422,378.413,412.095,391.382,433.768z
			 M473.06,365.038c-5.555,19.02-14.844,36.241-25.483,47.246c-7.769,8.036-15.711,12.12-20.736,10.653
			c-10.747-3.143-19.326-34.136-7.763-73.689l0.001-0.004c5.554-19.018,14.842-36.238,25.482-47.243
			c6.721-6.953,13.573-10.945,18.552-10.945c0.777,0,1.507,0.097,2.186,0.295c5.025,1.469,9.524,9.188,11.743,20.144
			C480.079,326.499,478.63,346.01,473.06,365.038z"/>
	</g>
</g>
</svg>